<svg width="200mm" height="200mm" viewBox="0 0 200 200" xmlns="http://www.w3.org/2000/svg"><circle style="fill:#fddd33;fill-opacity:1;fill-rule:evenodd;stroke:#000;stroke-width:13.7299999;stroke-miterlimit:4;stroke-dasharray:none;stroke-opacity:1" cx="100" cy="100" r="92.637"/><path d="M140.445 109.91q0 1.98-.153 3.426-.152 1.446-.456 2.435-.229.99-.685 1.599-.38.533-.914.761l-58.38 28.924q-1.065.532-1.827.456-.76-.076-1.293-.837-.457-.761-.685-2.207-.153-1.523-.153-3.806 0-3.12.076-4.947.153-1.827.457-2.893.305-1.065.837-1.522.533-.533 1.447-.914l43.842-20.55-43.005-19.943q-1.218-.532-1.98-1.065-.684-.533-1.065-1.599-.38-1.141-.533-2.968-.076-1.903-.076-5.1 0-2.816.153-4.414.228-1.599.685-2.284.532-.685 1.293-.609.762.076 1.827.61l58.456 29.151q.99.457 1.523 2.436.609 1.979.609 5.86z" style="font-size:155.883px;line-height:1.25;font-family:Calibri;-inkscape-font-specification:'Calibri Bold';stroke-width:.297688;font-weight:700" transform="scale(.86332 1.15831)"/><path d="M126.049 93.939c.171 2.546-.012 8.43-3.957 5.85L69.994 73.84c-2.486-2.284-1.677-6.12-1.811-9.177-.004-2.508.413-5.682 3.217-6.457 17.172-8.496 34.31-17.066 51.503-25.516 4.086-.652 2.927 5.375 3.127 7.952-.154 2.712.313 6.593-3.017 7.528L84.145 66.39c13.175 6.143 26.404 12.177 39.545 18.389 3.101 1.75 2.04 6.231 2.359 9.16z" style="font-size:140px;line-height:1.25;font-family:Calibri;-inkscape-font-specification:'Calibri Bold';stroke-width:.267356;font-weight:700;display:inline" transform="matrix(.96127 0 0 1.28973 13.043 -13.089)"/></svg>