<?xml version="1.0" standalone="no"?>
<!DOCTYPE svg PUBLIC "-//W3C//DTD SVG 20010904//EN"
 "http://www.w3.org/TR/2001/REC-SVG-20010904/DTD/svg10.dtd">
<svg version="1.0" xmlns="http://www.w3.org/2000/svg"
 width="192.000000pt" height="192.000000pt" viewBox="0 0 192.000000 192.000000"
 preserveAspectRatio="xMidYMid meet">
<metadata>
Created by potrace 1.14, written by Peter Selinger 2001-2017
</metadata>
<g transform="translate(0.000000,192.000000) scale(0.100000,-0.100000)"
fill="#000000" stroke="none">
<path d="M841 1830 c-151 -21 -317 -94 -438 -193 -133 -107 -249 -289 -294
-462 -32 -122 -31 -317 4 -447 82 -311 317 -545 632 -629 113 -30 317 -30 430
0 249 67 463 239 577 466 14 28 38 88 54 135 26 79 28 96 28 250 1 195 -10
244 -85 395 -60 121 -125 205 -222 285 -88 73 -245 154 -349 180 -93 23 -249
32 -337 20z m149 -120 c21 -40 -1 -56 -87 -63 -181 -14 -373 -117 -476 -254
-72 -97 -93 -116 -117 -103 -31 16 -24 46 24 114 49 69 128 146 199 195 106
72 275 129 389 130 47 1 59 -2 68 -19z m-44 -108 c18 -12 23 -39 11 -55 -7 -8
-46 -20 -87 -26 -144 -24 -271 -104 -382 -238 -29 -37 -36 -39 -63 -20 -31 24
-10 65 78 152 62 61 103 91 167 123 100 50 246 84 276 64z m-2 -145 c9 -15 7
-22 -13 -38 -13 -10 -34 -19 -48 -19 -49 0 -172 -67 -238 -130 -47 -46 -69
-61 -87 -58 -16 2 -24 10 -26 30 -6 51 134 167 267 219 58 23 130 21 145 -4z
m711 -169 c98 -214 99 -441 3 -658 -25 -56 -46 -80 -69 -80 -39 0 -40 33 -3
118 86 199 85 390 -4 584 -38 85 -35 108 15 108 20 0 30 -11 58 -72z m-446 28
c8 -9 11 -113 9 -362 l-3 -349 -25 -3 c-20 -2 -51 19 -142 98 l-116 100 -109
0 c-71 0 -113 4 -121 12 -17 17 -17 289 0 306 8 8 50 12 124 12 l111 0 114
100 c63 54 121 99 130 100 9 0 22 -6 28 -14z m320 -55 c22 -22 56 -121 72
-211 14 -80 5 -188 -23 -278 -35 -116 -58 -144 -99 -122 -24 14 -24 21 6 95
55 139 55 291 -1 431 -29 72 -29 80 -6 93 24 14 29 14 51 -8z m-100 -75 c6 -7
20 -40 32 -72 51 -147 4 -413 -68 -390 -32 10 -34 30 -12 93 27 79 27 207 -1
287 -24 71 -23 61 -4 80 19 20 38 20 53 2z m-798 -532 c59 -61 163 -118 241
-133 75 -13 99 -45 58 -74 -52 -36 -229 36 -335 135 -65 60 -79 90 -53 116 21
21 35 14 89 -44z m-143 -16 c111 -135 238 -215 382 -239 79 -13 101 -27 93
-60 -8 -28 -38 -32 -128 -15 -123 24 -232 83 -332 181 -88 87 -109 128 -78
152 27 19 34 17 63 -19z m-102 -65 c96 -140 232 -238 392 -284 37 -10 83 -19
103 -19 90 0 133 -27 105 -66 -12 -16 -25 -18 -83 -16 -95 4 -173 26 -278 77
-110 54 -196 123 -270 216 -60 78 -74 111 -55 134 23 27 46 16 86 -42z"/>
<path d="M1050 1124 l-85 -74 -97 0 -98 0 0 -90 0 -90 101 0 101 0 81 -70 82
-70 3 121 c1 66 1 171 0 234 l-3 113 -85 -74z"/>
</g>
</svg>
