<?xml version="1.0" standalone="no"?>
<!DOCTYPE svg PUBLIC "-//W3C//DTD SVG 20010904//EN"
 "http://www.w3.org/TR/2001/REC-SVG-20010904/DTD/svg10.dtd">
<svg version="1.0" xmlns="http://www.w3.org/2000/svg"
 width="752.000000pt" height="752.000000pt" viewBox="0 0 752.000000 752.000000"
 preserveAspectRatio="xMidYMid meet">
<metadata>
Created by potrace 1.11, written by Peter Selinger 2001-2013
</metadata>
<g transform="translate(0.000000,752.000000) scale(0.100000,-0.100000)"
fill="#000000" stroke="none">
<path d="M3465 7509 c-1214 -99 -2300 -772 -2928 -1813 -719 -1192 -712 -2719
17 -3899 896 -1451 2624 -2118 4261 -1646 1067 308 1966 1106 2403 2134 381
895 401 1909 55 2815 -557 1462 -1975 2431 -3537 2419 -94 -1 -216 -5 -271
-10z m556 -520 c1081 -85 2050 -713 2579 -1669 531 -959 531 -2161 0 -3120
-388 -701 -1025 -1240 -1771 -1498 -1179 -407 -2472 -115 -3348 757 -490 488
-802 1089 -916 1765 -174 1033 162 2084 905 2826 674 674 1599 1015 2551 939z"/>
<path d="M3979 5802 c-847 -563 -977 -653 -992 -684 -25 -54 -40 -232 -34
-403 7 -164 23 -239 59 -272 27 -24 1888 -1267 1929 -1289 49 -25 66 -19 86
34 16 41 18 78 18 307 -1 285 -6 323 -55 379 -17 19 -327 218 -744 477 -393
244 -711 447 -708 451 4 3 327 207 717 453 391 245 722 458 738 473 15 14 32
42 38 61 16 53 24 452 11 536 -12 73 -37 118 -68 123 -12 2 -397 -249 -995
-646z"/>
<path d="M2482 4353 c-15 -33 -17 -76 -17 -313 0 -300 6 -343 53 -389 15 -15
349 -226 744 -471 532 -331 713 -448 705 -456 -7 -6 -329 -210 -717 -454 -388
-243 -717 -454 -733 -468 -46 -44 -52 -83 -52 -372 0 -226 2 -270 17 -302 19
-41 47 -54 80 -37 13 6 456 299 985 651 781 519 964 645 976 671 35 74 49 363
27 522 -21 143 60 79 -1027 805 -661 442 -981 650 -998 650 -20 0 -30 -8 -43
-37z"/>
</g>
</svg>
